<?xml version="1.0" encoding="UTF-8"?>
<svg width="24px" height="24px" viewBox="0 0 24 24" version="1.1" xmlns="http://www.w3.org/2000/svg">
    <g stroke="none" stroke-width="1" fill="none" fill-rule="evenodd">
        <path d="M17.5879441,12.7134727 C17.5889441,9.31047273 20.3109441,7.98447273 20.4079441,7.93647273 C19.3129441,6.24747273 17.5849441,5.97747273 16.9609441,5.94947273 C15.3139441,5.78747273 13.7479441,6.91847273 12.9629441,6.91847273 C12.1559441,6.91847273 10.9119441,5.96347273 9.53294408,5.99147273 C7.75294408,6.01947273 6.11094408,7.08047273 5.25294408,8.73747273 C3.47794408,11.7894727 4.80294408,16.1424727 6.53294408,18.6564727 C7.37394408,19.8754727 8.36094408,21.2274727 9.67794408,21.1794727 C10.9619441,21.1184727 11.4899441,20.3584727 13.0069441,20.3584727 C14.5079441,20.3584727 15.0099441,21.1794727 16.3389441,21.1554727 C17.7059441,21.1184727 18.5719441,19.9524727 19.4029441,18.7194727 C20.3599441,17.3124727 20.7869441,15.9394727 20.8019441,15.8844727 C20.7669441,15.8714727 17.5889441,14.6844727 17.5879441,12.7134727" fill="#000000"/>
        <path d="M15.1229441,3.33247273 C15.9519441,2.29247273 16.5099441,0.95147273 16.3539441,0 C15.1589441,0.04247273 13.6559441,0.82247273 12.7799441,1.83547273 C12.0139441,2.70747273 11.3379441,4.07847273 11.5209441,4.99647273 C12.8509441,5.07047273 14.2939441,4.37247273 15.1229441,3.33247273" fill="#000000"/>
    </g>
</svg> 